PathFileType	4	(X/Y/Z)	C:\Users\dbl\Desktop\LZH\BX\Trimmed_Trimmed_bx_y_5_501.trc
DataRate	CameraRate	NumFrames	NumMarkers	Units	OrigDataRate	OrigDataStartFrame	OrigNumFrames
50.00	50.00	       8	43	mm	50.00	55	       438
Frame#	Time	Top.Head			R.Acromium			L.Acromium			Sternum			R.ASIS			L.ASIS			V.Sacral			R.Thigh.Upper			R.Thigh.Front			R.Thigh.Rear			R.Knee.Lat			R.Knee.Med			R.Shank.Upper			R.Shank.Front			R.Shank.Rear			R.Ankle.Lat			R.Midfoot.Lat			R.Toe.Lat			R.Toe.Tip			R.Toe.Med			R.Ankle.Med			R.Midfoot.Sup			R.Heel			L.Thigh.Upper			L.Thigh.Front			L.Thigh.Rear			L.Knee.Lat			L.Knee.Med			L.Shank.Upper			L.Shank.Front			L.Shank.Rear			L.Ankle.Lat			L.Midfoot.Lat			L.Toe.Lat			L.Toe.Tip			L.Toe.Med			L.Ankle.Med			L.Midfoot.Sup			L.Heel			origin1 front left			origin2 front right			origin 3 back right			origin 4 back leftt			
		X1	Y1	Z1	X2	Y2	Z2	X3	Y3	Z3	X4	Y4	Z4	X5	Y5	Z5	X6	Y6	Z6	X7	Y7	Z7	X8	Y8	Z8	X9	Y9	Z9	X10	Y10	Z10	X11	Y11	Z11	X12	Y12	Z12	X13	Y13	Z13	X14	Y14	Z14	X15	Y15	Z15	X16	Y16	Z16	X17	Y17	Z17	X18	Y18	Z18	X19	Y19	Z19	X20	Y20	Z20	X21	Y21	Z21	X22	Y22	Z22	X23	Y23	Z23	X24	Y24	Z24	X25	Y25	Z25	X26	Y26	Z26	X27	Y27	Z27	X28	Y28	Z28	X29	Y29	Z29	X30	Y30	Z30	X31	Y31	Z31	X32	Y32	Z32	X33	Y33	Z33	X34	Y34	Z34	X35	Y35	Z35	X36	Y36	Z36	X37	Y37	Z37	X38	Y38	Z38	X39	Y39	Z39	X40	Y40	Z40	X41	Y41	Z41	X42	Y42	Z42	X43	Y43	Z43	

55	1.080	-656.07892	264.82608	1842.60510	-648.58716	69.53104	1538.61511	-660.08862	455.47891	1526.02026	-534.43671	273.84659	1407.92920	-539.60748	151.27490	1051.50208	-542.59497	409.10895	1068.34094	-743.77008	264.19269	1020.38983	-571.27527	102.27127	888.49133	-526.77460	162.80096	840.84296	-623.81293	96.16563	745.30658	-650.90601	129.51765	600.39227	-630.94482	236.93564	557.57745	-683.79150	128.83063	539.95996	-598.80951	177.88022	541.60809	-722.25916	132.64711	473.33951	-684.30182	149.55672	214.96149	-613.18292	83.66409	169.78177	-568.86609	57.95845	166.21115	-489.86829	96.31751	163.43567	-528.58276	149.32460	164.12241	-629.48425	222.93260	219.32442	-588.60303	193.14391	169.51486	-714.11835	218.35921	169.14919	-565.06549	442.63535	876.52661	-521.46405	378.04776	836.11279	-614.27057	444.97525	749.78516	-646.11890	417.94122	625.31598	-615.97797	311.89520	579.98639	-654.93304	413.35309	562.73993	-604.57471	370.22412	541.00208	-708.22821	419.99719	512.32336	-678.38336	415.78729	212.11545	-582.66986	466.75052	166.40311	-542.72351	475.47333	161.40028	-476.81009	428.87961	166.78174	-523.31799	386.24438	176.96071	-643.26691	326.47000	206.83958	-593.63306	346.92868	168.43736	-732.70947	345.10995	164.50249	-443.44543	449.10220	147.02328	-450.66995	75.54551	144.54047	-806.33685	82.65797	142.59406	-800.16754	456.95242	146.44907	
56	1.100	-655.42828	264.68433	1842.63660	-648.18481	69.39420	1538.61047	-659.69855	455.35104	1526.08069	-534.05780	273.73694	1407.84534	-539.55444	151.09496	1051.47583	-542.52637	409.04807	1068.36499	-743.67181	264.10516	1020.44403	-571.27179	102.17986	888.50214	-526.80011	162.75250	840.79254	-623.87042	96.13158	745.33563	-650.95227	129.53125	600.33813	-631.07373	236.91429	557.63025	-683.86542	128.76526	539.94550	-598.88098	177.82095	541.57617	-722.28931	132.60413	473.32993	-684.28699	149.54379	214.96606	-613.17603	83.67658	169.77750	-568.86517	57.93330	166.22104	-489.87775	96.30949	163.43494	-528.59222	149.32535	164.11938	-629.48279	222.93762	219.32895	-588.61523	193.14336	169.51154	-714.11078	218.33766	169.13092	-565.11353	442.55844	876.54517	-521.48438	377.99460	836.09827	-614.30780	444.64114	749.59637	-646.18488	417.89236	625.35590	-616.31561	311.68799	579.79407	-654.96448	413.28110	562.74988	-604.58710	370.20187	541.02515	-708.24658	419.97424	512.34796	-678.40021	415.77521	212.11330	-582.67218	466.73917	166.41534	-542.72339	475.45914	161.42957	-476.74506	428.88052	166.89220	-523.33105	386.25183	176.98343	-643.27240	326.43655	206.81863	-593.62451	346.92114	168.45157	-732.71838	345.12308	164.46877	-443.46411	449.07806	146.98152	-450.66556	75.54491	144.54332	-806.34271	82.66134	142.60329	-800.19080	456.96436	146.45302	
57	1.120	-654.78564	264.53708	1842.68579	-647.75958	69.29459	1538.53467	-659.29730	455.19830	1526.14697	-533.67139	273.64929	1407.79810	-539.47736	150.89578	1051.45898	-542.44037	408.97696	1068.38293	-743.55426	264.02008	1020.49719	-571.26331	102.07298	888.52435	-526.80817	162.67793	840.73962	-623.90973	96.10594	745.36078	-650.97827	129.54193	600.28497	-631.17395	236.89934	557.66595	-683.90472	128.72337	539.91187	-598.94299	177.76987	541.54895	-722.31415	132.56561	473.32361	-684.25903	149.53857	214.95992	-613.17242	83.68665	169.77238	-568.86523	57.92050	166.21835	-489.89020	96.30061	163.43503	-528.58875	149.32259	164.11447	-629.48218	222.93976	219.33089	-588.62268	193.13823	169.50677	-714.10516	218.31764	169.11513	-565.14386	442.49359	876.55396	-521.48718	377.95703	836.07684	-614.33301	444.31021	749.41101	-646.23383	417.85287	625.38385	-616.62640	311.49872	579.59436	-655.01062	413.20535	562.75183	-604.61676	370.16864	541.03125	-708.25824	419.94025	512.37201	-678.41364	415.75629	212.10603	-582.67621	466.72693	166.43066	-542.73010	475.44763	161.45990	-476.71365	428.88495	166.97246	-523.33392	386.24387	176.99387	-643.28369	326.39902	206.79642	-593.61285	346.90753	168.46312	-732.75616	345.15320	164.41005	-443.49036	449.05060	146.93575	-450.65860	75.53845	144.54878	-806.34344	82.67001	142.60751	-800.22760	456.96802	146.46577	
58	1.140	-654.14392	264.39572	1842.73364	-647.30817	69.26411	1538.35840	-658.89099	455.03043	1526.21167	-533.29407	273.57993	1407.77795	-539.37976	150.70107	1051.44141	-542.33765	408.89145	1068.38159	-743.42426	263.93661	1020.54980	-571.25647	101.96170	888.54840	-526.79187	162.57875	840.68524	-623.94092	96.08449	745.37762	-650.99005	129.54085	600.24060	-631.23230	236.88242	557.68402	-683.91852	128.70032	539.87067	-598.98883	177.72797	541.52826	-722.33447	132.53943	473.32147	-684.22327	149.54089	214.94597	-613.17487	83.68960	169.76897	-568.86633	57.92089	166.20641	-489.90277	96.29391	163.43716	-528.57269	149.31639	164.10870	-629.48218	222.93976	219.33089	-588.62689	193.13000	169.50165	-714.10266	218.30365	169.10538	-565.15106	442.44406	876.54846	-521.46899	377.93109	836.04449	-614.34338	443.99796	749.24066	-646.26453	417.82904	625.40271	-616.86090	311.35223	579.41638	-655.06555	413.13483	562.75507	-604.66180	370.12628	541.01392	-708.26508	419.89746	512.39056	-678.42029	415.73495	212.09351	-582.68024	466.71878	166.44247	-542.74493	475.44382	161.48633	-476.71753	428.89307	167.01501	-523.33020	386.22800	176.98651	-643.29736	326.36682	206.77733	-593.60120	346.88965	168.47021	-732.81891	345.20084	164.32768	-443.51770	449.02625	146.89941	-450.65259	75.52989	144.55209	-806.33899	82.68472	142.60443	-800.27155	456.96548	146.48357	
59	1.160	-653.50006	264.27057	1842.77026	-646.83685	69.32001	1538.08167	-658.48492	454.86279	1526.27002	-532.93304	273.52020	1407.77405	-539.26807	150.52948	1051.41516	-542.21790	408.79245	1068.35510	-743.29132	263.85617	1020.60461	-571.25513	101.85849	888.56830	-526.75079	162.46057	840.63116	-623.97375	96.06084	745.38544	-650.99817	129.52092	600.21161	-631.24670	236.85350	557.69971	-683.91919	128.68933	539.83466	-599.01489	177.69560	541.51361	-722.35217	132.52950	473.32300	-684.18921	149.54758	214.93031	-613.18353	83.68325	169.76950	-568.86859	57.93227	166.19041	-489.91141	96.29194	163.44121	-528.54950	149.30865	164.10318	-629.48242	222.93875	219.32999	-588.62909	193.12097	169.49712	-714.10303	218.29764	169.10352	-565.13513	442.40680	876.53192	-521.43121	377.91006	836.00330	-614.33923	443.71213	749.09058	-646.28094	417.82220	625.41687	-616.99518	311.25754	579.28168	-655.11755	413.07492	562.76654	-604.71497	370.07901	540.97418	-708.26843	419.85254	512.40155	-678.41815	415.71640	212.07709	-582.68317	466.71890	166.44380	-542.76666	475.45032	161.50259	-476.74139	428.90585	167.03186	-523.32495	386.21124	176.96393	-643.31006	326.34799	206.76607	-593.59393	346.87329	168.47130	-732.89093	345.26208	164.23041	-443.54117	449.00827	146.87849	-450.65060	75.52347	144.55057	-806.33112	82.70470	142.59288	-800.31305	456.96609	146.49968	
60	1.180	-652.84912	264.16745	1842.79773	-646.36353	69.45267	1537.74194	-658.07758	454.71152	1526.31909	-532.58698	273.46246	1407.77856	-539.15118	150.38969	1051.37781	-542.08051	408.68619	1068.30774	-743.16608	263.78253	1020.66522	-571.25909	101.77269	888.58240	-526.69324	162.33199	840.57996	-624.01257	96.02917	745.38605	-651.01300	129.47902	600.20074	-631.22528	236.80600	557.73444	-683.91724	128.68427	539.81299	-599.02203	177.67268	541.50348	-722.36877	132.53374	473.32620	-684.16736	149.55354	214.91982	-613.19611	83.66866	169.77498	-568.87170	57.95005	166.17557	-489.91287	96.29573	163.44588	-528.52734	149.30237	164.09924	-629.48273	222.93767	219.32901	-588.62952	193.11336	169.49374	-714.10498	218.29865	169.10912	-565.10083	442.37494	876.51312	-521.37964	377.88733	835.95959	-614.32263	443.45432	748.96094	-646.28894	417.82697	625.42798	-617.03345	311.20685	579.19806	-655.15350	413.02576	562.78809	-604.76495	370.03183	540.92065	-708.26855	419.81323	512.40698	-678.40796	415.70459	212.05997	-582.68494	466.72824	166.43028	-542.79089	475.46597	161.50322	-476.76160	428.92297	167.04530	-523.32385	386.19815	176.93564	-643.31946	326.34473	206.76479	-593.59583	346.86572	168.46577	-732.95154	345.32907	164.13229	-443.55954	448.99377	146.86765	-450.65335	75.52178	144.54483	-806.32184	82.72689	142.57410	-800.34192	456.98132	146.50732	
61	1.200	-652.17053	264.08630	1842.82861	-645.90955	69.62556	1537.40540	-657.66071	454.58786	1526.35645	-532.25238	273.40341	1407.78625	-539.03833	150.27913	1051.33362	-541.92651	408.58246	1068.25171	-743.05841	263.72067	1020.73303	-571.26434	101.70826	888.59186	-526.63397	162.20326	840.53412	-624.05450	95.98703	745.38165	-651.04016	129.41690	600.20575	-631.18182	236.74002	557.80249	-683.91833	128.68105	539.80853	-599.01599	177.65852	541.49677	-722.38416	132.54448	473.32840	-684.16522	149.55418	214.91920	-613.20856	83.64959	169.78387	-568.87500	57.96883	166.16542	-489.90610	96.30446	163.44894	-528.51343	149.30029	164.09807	-629.48291	222.93701	219.32838	-588.62769	193.10837	169.49167	-714.10699	218.30382	169.11987	-565.05450	442.34171	876.50140	-521.32294	377.86008	835.92059	-614.29675	443.22263	748.84961	-646.29095	417.83224	625.43359	-616.99915	311.18192	579.15979	-655.16467	412.98352	562.81622	-604.79871	369.98917	540.86584	-708.26489	419.78485	512.41217	-678.39227	415.70151	212.04720	-582.68561	466.74408	166.40279	-542.81110	475.48685	161.48587	-476.75998	428.94125	167.07249	-523.33057	386.19019	176.91370	-643.32446	326.35208	206.77126	-593.61023	346.87192	168.45456	-732.98431	345.39233	164.04765	-443.57535	448.97433	146.85248	-450.65884	75.52457	144.53824	-806.31287	82.74577	142.55209	-800.35101	457.01672	146.50255	
62	1.220	-651.41260	264.02219	1842.87854	-645.48627	69.78882	1537.14038	-657.22552	454.49442	1526.37866	-531.93024	273.34354	1407.79419	-538.93658	150.18687	1051.29199	-541.76141	408.49210	1068.20044	-742.97424	263.67462	1020.80621	-571.26508	101.66408	888.59796	-526.58911	162.08513	840.49512	-624.09100	95.93676	745.37311	-651.07721	129.34055	600.21936	-631.12897	236.66194	557.90198	-683.92310	128.67787	539.81787	-599.00525	177.65164	541.49274	-722.39630	132.55167	473.32797	-684.18408	149.54741	214.92905	-613.21692	83.63108	169.79176	-568.87714	57.98378	166.16130	-489.89294	96.31577	163.44800	-528.51105	149.30353	164.10034	-629.48297	222.93681	219.32816	-588.62292	193.10605	169.49062	-714.10822	218.31026	169.13255	-565.00134	442.30460	876.50171	-521.26886	377.83069	835.89087	-614.26477	443.01456	748.75433	-646.28375	417.82556	625.42981	-616.92224	311.16370	579.15228	-655.14984	412.94437	562.84454	-604.80505	369.95383	540.82111	-708.25720	419.76810	512.42346	-678.37524	415.70700	212.04474	-582.68488	466.76120	166.36778	-542.82147	475.50839	161.45256	-476.73431	428.95462	167.11330	-523.34521	386.18646	176.90707	-643.32550	326.36069	206.77975	-593.63647	346.89142	168.44006	-732.98499	345.44403	163.98540	-443.59219	448.94144	146.81883	-450.66339	75.52918	144.53500	-806.30524	82.75455	142.53284	-800.33856	457.06653	146.48575	
